<svg width="33" height="22" viewBox="0 0 33 22" fill="none" xmlns="http://www.w3.org/2000/svg">
<path d="M31.9564 9.94919H2.2985C1.89876 9.94919 1.49553 9.94569 1.09578 9.94919H1.04364C0.497898 9.94919 -0.023513 10.4326 0.000819538 11C0.025152 11.5709 0.459661 12.0508 1.04364 12.0508H30.7015C31.1012 12.0508 31.5045 12.0543 31.9042 12.0508H31.9564C32.5021 12.0508 33.0235 11.5674 32.9992 11C32.9714 10.4291 32.5403 9.94919 31.9564 9.94919ZM31.9564 0.00155675H2.2985C1.89876 0.00155675 1.49553 -0.00194594 1.09578 0.00155675H1.04364C0.497898 0.00155675 -0.023513 0.484928 0.000819538 1.05236C0.025152 1.6233 0.459661 2.10317 1.04364 2.10317H30.7015C31.1012 2.10317 31.5045 2.10667 31.9042 2.10317H31.9564C32.5021 2.10317 33.0235 1.6198 32.9992 1.05236C32.9714 0.481425 32.5403 0.00155675 31.9564 0.00155675ZM31.9564 19.8968H2.2985C1.89876 19.8968 1.49553 19.8933 1.09578 19.8968H1.04364C0.497898 19.8968 -0.023513 20.3802 0.000819538 20.9476C0.025152 21.5186 0.459661 21.9984 1.04364 21.9984H30.7015C31.1012 21.9984 31.5045 22.0019 31.9042 21.9984H31.9564C32.5021 21.9984 33.0235 21.5151 32.9992 20.9476C32.9714 20.3767 32.5403 19.8968 31.9564 19.8968Z" fill="white"/>
</svg>
